<?xml version="1.0" encoding="UTF-8" standalone="no"?>
<!DOCTYPE svg PUBLIC "-//W3C//DTD SVG 1.1//EN"
 "http://www.w3.org/Graphics/SVG/1.1/DTD/svg11.dtd">
<!-- Generated by graphviz version 2.30.1 (20180828.1746)
 -->
<!-- Title: %3 Pages: 1 -->
<svg width="508pt" height="260pt"
 viewBox="0.00 0.00 508.00 260.00" xmlns="http://www.w3.org/2000/svg" xmlns:xlink="http://www.w3.org/1999/xlink">
<g id="graph0" class="graph" transform="scale(1 1) rotate(0) translate(4 256)">
<title>%3</title>
<polygon fill="white" stroke="white" points="-4,5 -4,-256 505,-256 505,5 -4,5"/>
<!-- [root] aws_instance.app_server (expand) -->
<g id="node1" class="node"><title>[root] aws_instance.app_server (expand)</title>
<polygon fill="none" stroke="black" points="324.25,-108 175.75,-108 175.75,-72 324.25,-72 324.25,-108"/>
<text text-anchor="middle" x="250" y="-86.3" font-family="Times,serif" font-size="14.00">aws_instance.app_server</text>
</g>
<!-- [root] provider[&quot;registry.terraform.io/hashicorp/aws&quot;] -->
<g id="node2" class="node"><title>[root] provider[&quot;registry.terraform.io/hashicorp/aws&quot;]</title>
<polygon fill="none" stroke="black" points="250,-36 -0.0161616,-18 250,-3.55271e-15 500.016,-18 250,-36"/>
<text text-anchor="middle" x="250" y="-14.3" font-family="Times,serif" font-size="14.00">provider[&quot;registry.terraform.io/hashicorp/aws&quot;]</text>
</g>
<!-- [root] aws_instance.app_server (expand)&#45;&gt;[root] provider[&quot;registry.terraform.io/hashicorp/aws&quot;] -->
<g id="edge1" class="edge"><title>[root] aws_instance.app_server (expand)&#45;&gt;[root] provider[&quot;registry.terraform.io/hashicorp/aws&quot;]</title>
<path fill="none" stroke="black" d="M250,-71.6966C250,-63.9827 250,-54.7125 250,-46.1124"/>
<polygon fill="black" stroke="black" points="253.5,-46.1043 250,-36.1043 246.5,-46.1044 253.5,-46.1043"/>
</g>
<!-- [root] provider[&quot;registry.terraform.io/hashicorp/aws&quot;] (close) -->
<g id="node3" class="node"><title>[root] provider[&quot;registry.terraform.io/hashicorp/aws&quot;] (close)</title>
<ellipse fill="none" stroke="black" cx="250" cy="-162" rx="225.295" ry="18"/>
<text text-anchor="middle" x="250" y="-158.3" font-family="Times,serif" font-size="14.00">[root] provider[&quot;registry.terraform.io/hashicorp/aws&quot;] (close)</text>
</g>
<!-- [root] provider[&quot;registry.terraform.io/hashicorp/aws&quot;] (close)&#45;&gt;[root] aws_instance.app_server (expand) -->
<g id="edge2" class="edge"><title>[root] provider[&quot;registry.terraform.io/hashicorp/aws&quot;] (close)&#45;&gt;[root] aws_instance.app_server (expand)</title>
<path fill="none" stroke="black" d="M250,-143.697C250,-135.983 250,-126.712 250,-118.112"/>
<polygon fill="black" stroke="black" points="253.5,-118.104 250,-108.104 246.5,-118.104 253.5,-118.104"/>
</g>
<!-- [root] root -->
<g id="node4" class="node"><title>[root] root</title>
<ellipse fill="none" stroke="black" cx="250" cy="-234" rx="47.169" ry="18"/>
<text text-anchor="middle" x="250" y="-230.3" font-family="Times,serif" font-size="14.00">[root] root</text>
</g>
<!-- [root] root&#45;&gt;[root] provider[&quot;registry.terraform.io/hashicorp/aws&quot;] (close) -->
<g id="edge3" class="edge"><title>[root] root&#45;&gt;[root] provider[&quot;registry.terraform.io/hashicorp/aws&quot;] (close)</title>
<path fill="none" stroke="black" d="M250,-215.697C250,-207.983 250,-198.712 250,-190.112"/>
<polygon fill="black" stroke="black" points="253.5,-190.104 250,-180.104 246.5,-190.104 253.5,-190.104"/>
</g>
</g>
</svg>
